<?xml version="1.0" encoding="iso-8859-1"?>
<!-- Generator: Adobe Illustrator 18.0.0, SVG Export Plug-In . SVG Version: 6.00 Build 0)  -->
<!DOCTYPE svg PUBLIC "-//W3C//DTD SVG 1.1//EN" "http://www.w3.org/Graphics/SVG/1.1/DTD/svg11.dtd">
<svg version="1.1" id="Capa_1" xmlns="http://www.w3.org/2000/svg" xmlns:xlink="http://www.w3.org/1999/xlink" x="0px" y="0px"
	 viewBox="0 0 215.977 215.977" style="enable-background:new 0 0 215.977 215.977;" xml:space="preserve">
<path d="M188.379,45.107h-72.89v-17.51c0-4.142-3.358-7.5-7.5-7.5H35.098V7.5c0-4.142-3.358-7.5-7.5-7.5s-7.5,3.358-7.5,7.5v20.098
	v100.039v80.84c0,4.142,3.358,7.5,7.5,7.5s7.5-3.358,7.5-7.5v-73.34h65.391v17.51c0,4.142,3.358,7.5,7.5,7.5h80.39
	c4.142,0,7.5-3.358,7.5-7.5V52.607C195.879,48.465,192.521,45.107,188.379,45.107z M35.098,120.137V35.098h65.391v17.51v67.529
	H35.098z M180.879,145.146h-65.39v-17.51V60.107h65.39V145.146z"/>
<g>
</g>
<g>
</g>
<g>
</g>
<g>
</g>
<g>
</g>
<g>
</g>
<g>
</g>
<g>
</g>
<g>
</g>
<g>
</g>
<g>
</g>
<g>
</g>
<g>
</g>
<g>
</g>
<g>
</g>
</svg>
