<?xml version="1.0" encoding="UTF-8" standalone="no"?>
<!DOCTYPE svg PUBLIC "-//W3C//DTD SVG 1.1//EN" "http://www.w3.org/Graphics/SVG/1.1/DTD/svg11.dtd">
<svg width="100%" height="100%" viewBox="0 0 472 472" version="1.1" xmlns="http://www.w3.org/2000/svg" xmlns:xlink="http://www.w3.org/1999/xlink" xml:space="preserve" xmlns:serif="http://www.serif.com/" style="fill-rule:evenodd;clip-rule:evenodd;stroke-linejoin:round;stroke-miterlimit:2;">
    <g transform="matrix(1.11398,0,0,1.11398,-24.6911,-57.774)">
        <path d="M412.758,236.116L234.058,414.116L55.758,235.816C36.158,216.216 25.358,190.216 25.358,162.516C25.358,134.816 36.058,108.816 55.658,89.316C61.561,83.413 68.06,78.307 75.018,74.057C91.046,64.267 109.513,59.016 128.758,59.016C156.458,59.016 182.558,69.816 202.158,89.416L224.758,112.016C230.058,117.316 238.558,117.316 243.858,112.016L266.258,89.616C285.858,70.016 311.958,59.216 339.558,59.216C367.158,59.216 393.158,70.016 412.758,89.516C432.358,109.116 443.058,135.116 443.058,162.816C443.158,190.516 432.358,216.516 412.758,236.116Z" style="fill:white;"/>
    </g>
</svg>
